<?xml version="1.0" encoding="utf-8"?><svg xmlns="http://www.w3.org/2000/svg" xmlns:xlink="http://www.w3.org/1999/xlink" width="1597" height="772" preserveAspectRatio="xMidYMid" viewBox="0 0 1597 772" style="z-index:1;margin-right:-2px;display:block;background-repeat-y:initial;background-repeat-x:initial;background-color:rgb(0, 29, 63);animation-play-state:paused" ><g transform="translate(798.5,386) scale(1,1) translate(-798.5,-386)" style="transform:matrix(1, 0, 0, 1, 0, 0);animation-play-state:paused" ><defs style="animation-play-state:paused" ><filter id="blur-ypwz1ooygp-1" x="-1" y="-1" width="3" height="3" style="animation-play-state:paused" ><feGaussianBlur stdDeviation="3" style="animation-play-state:paused" ></feGaussianBlur></filter>
<filter id="blur-ypwz1ooygp-2" x="-1" y="-1" width="3" height="3" style="animation-play-state:paused" ><feGaussianBlur stdDeviation="1.5" style="animation-play-state:paused" ></feGaussianBlur></filter>
<filter id="blur-ypwz1ooygp-3" x="-1" y="-1" width="3" height="3" style="animation-play-state:paused" ><feGaussianBlur stdDeviation="1" style="animation-play-state:paused" ></feGaussianBlur></filter></defs>
<circle cx="622.574519478762" cy="0" transform="matrix(1,0,0,1,0,46.820556640625)" r="8.155449767581114" fill="#001d3f" opacity="0.63" style="transform:matrix(1, 0, 0, 1, 0, 46.8206);opacity:0.63;animation-play-state:paused" ></circle>
<circle cx="277.54502191927384" cy="0" transform="matrix(1,0,0,1,0,252.26678466796875)" r="7.79912662070581" fill="#001d3f" opacity="0.36000000000000004" style="transform:matrix(1, 0, 0, 1, 0, 252.267);opacity:0.36;animation-play-state:paused" ></circle>
<circle cx="1382.920441019762" cy="0" transform="matrix(1,0,0,1,0,385.2229919433594)" r="9.53275831563184" fill="#001d3f" opacity="0.63" style="transform:matrix(1, 0, 0, 1, 0, 385.223);opacity:0.63;animation-play-state:paused" ></circle>
<circle cx="861.8238025030944" cy="0" transform="matrix(1,0,0,1,0,465.5541687011719)" r="13.195974362310665" fill="#001d3f" opacity="0.7200000000000001" style="transform:matrix(1, 0, 0, 1, 0, 465.554);opacity:0.72;animation-play-state:paused" ></circle>
<circle cx="1534.186498701986" cy="0" transform="matrix(1,0,0,1,0,532.7222900390625)" r="15.227788382639162" fill="#0059ff" opacity="0.7200000000000001" style="transform:matrix(1, 0, 0, 1, 0, 532.722);opacity:0.72;animation-play-state:paused" ></circle>
<circle cx="89.94572178885404" cy="0" transform="matrix(1,0,0,1,0,46.65399169921875)" r="15.759515372337747" fill="#0059ff" opacity="0.7200000000000001" style="transform:matrix(1, 0, 0, 1, 0, 46.654);opacity:0.72;animation-play-state:paused" ></circle>
<circle cx="1585.110607041666" cy="0" transform="matrix(1,0,0,1,0,18.5714111328125)" r="5.430430685963024" fill="#0059ff" opacity="0.36000000000000004" style="transform:matrix(1, 0, 0, 1, 0, 18.5714);opacity:0.36;animation-play-state:paused" ></circle>
<circle cx="1025.6687040870004" cy="0" transform="matrix(1,0,0,1,0,746.298095703125)" r="7.671707805194808" fill="#001d3f" opacity="0.36000000000000004" style="transform:matrix(1, 0, 0, 1, 0, 746.298);opacity:0.36;animation-play-state:paused" ></circle>
<circle cx="1274.673852913287" cy="0" transform="matrix(1,0,0,1,0,580.0642700195312)" r="5.219988608447028" fill="#001d3f" opacity="0.36000000000000004" style="transform:matrix(1, 0, 0, 1, 0, 580.064);opacity:0.36;animation-play-state:paused" ></circle>
<circle cx="667.4955008605187" cy="0" transform="matrix(1,0,0,1,0,670.8692626953125)" r="14.858189144829351" fill="#0059ff" opacity="0.7200000000000001" style="transform:matrix(1, 0, 0, 1, 0, 670.869);opacity:0.72;animation-play-state:paused" ></circle>
<circle cx="1385.5446888129516" cy="0" transform="matrix(1,0,0,1,0,499.63409423828125)" r="12.724612767461597" fill="#001d3f" opacity="0.7200000000000001" style="transform:matrix(1, 0, 0, 1, 0, 499.634);opacity:0.72;animation-play-state:paused" ></circle>
<circle cx="347.8148342640974" cy="0" transform="matrix(1,0,0,1,0,599.7767944335938)" r="12.633723652074405" fill="#00b2ff" opacity="0.7200000000000001" style="transform:matrix(1, 0, 0, 1, 0, 599.777);opacity:0.72;animation-play-state:paused" ></circle>
<circle cx="1123.4244068312835" cy="0" transform="matrix(1,0,0,1,0,71.45849609375)" r="6.569133876818943" fill="#001d3f" opacity="0.36000000000000004" style="transform:matrix(1, 0, 0, 1, 0, 71.4585);opacity:0.36;animation-play-state:paused" ></circle>
<circle cx="35.51629198825556" cy="0" transform="matrix(1,0,0,1,0,307.727783203125)" r="11.907395609698268" fill="#00b2ff" opacity="0.63" style="transform:matrix(1, 0, 0, 1, 0, 307.728);opacity:0.63;animation-play-state:paused" ></circle>
<circle cx="1109.8770630438814" cy="0" transform="matrix(1,0,0,1,0,287.11614990234375)" r="8.885629729513752" fill="#00b2ff" opacity="0.63" style="transform:matrix(1, 0, 0, 1, 0, 287.116);opacity:0.63;animation-play-state:paused" ></circle>
<circle cx="1362.1417386936414" cy="0" transform="matrix(1,0,0,1,0,734.7319946289062)" r="4.858568112509557" fill="#001d3f" opacity="0.36000000000000004" style="transform:matrix(1, 0, 0, 1, 0, 734.732);opacity:0.36;animation-play-state:paused" ></circle>
<circle cx="1237.9417140384473" cy="0" transform="matrix(1,0,0,1,0,242.81304931640625)" r="9.524430340136682" fill="#00b2ff" opacity="0.63" style="transform:matrix(1, 0, 0, 1, 0, 242.813);opacity:0.63;animation-play-state:paused" ></circle>
<circle cx="987.3538859552448" cy="0" transform="matrix(1,0,0,1,0,204.4732666015625)" r="7.490853457556872" fill="#001d3f" opacity="0.36000000000000004" style="transform:matrix(1, 0, 0, 1, 0, 204.473);opacity:0.36;animation-play-state:paused" ></circle>
<circle cx="219.57276763873074" cy="0" transform="matrix(1,0,0,1,0,254.69842529296875)" r="4.901109786501982" fill="#0059ff" opacity="0.36000000000000004" style="transform:matrix(1, 0, 0, 1, 0, 254.698);opacity:0.36;animation-play-state:paused" ></circle>
<circle cx="494.1949996132412" cy="0" transform="matrix(1,0,0,1,0,437.8060607910156)" r="13.420062936458553" fill="#001d3f" opacity="0.7200000000000001" style="transform:matrix(1, 0, 0, 1, 0, 437.806);opacity:0.72;animation-play-state:paused" ></circle>
<circle cx="101.1914178119209" cy="0" transform="matrix(1,0,0,1,0,210.91998291015625)" r="13.464412020365305" fill="#00b2ff" opacity="0.7200000000000001" style="transform:matrix(1, 0, 0, 1, 0, 210.92);opacity:0.72;animation-play-state:paused" ></circle>
<circle cx="264.8830954507077" cy="0" transform="matrix(1,0,0,1,0,283.5534362792969)" r="10.118566097072655" fill="#001d3f" opacity="0.63" style="transform:matrix(1, 0, 0, 1, 0, 283.553);opacity:0.63;animation-play-state:paused" ></circle>
<circle cx="1256.8523508381818" cy="0" transform="matrix(1,0,0,1,0,205.178955078125)" r="7.614845955497264" fill="#00b2ff" opacity="0.36000000000000004" style="transform:matrix(1, 0, 0, 1, 0, 205.179);opacity:0.36;animation-play-state:paused" ></circle>
<circle cx="651.8134195228733" cy="0" transform="matrix(1,0,0,1,0,135.26031494140625)" r="14.59684298999844" fill="#0059ff" opacity="0.7200000000000001" style="transform:matrix(1, 0, 0, 1, 0, 135.26);opacity:0.72;animation-play-state:paused" ></circle>
<circle cx="990.3809204120769" cy="0" transform="matrix(1,0,0,1,0,338.8747863769531)" r="4.135192722661378" fill="#0059ff" opacity="0.36000000000000004" style="transform:matrix(1, 0, 0, 1, 0, 338.875);opacity:0.36;animation-play-state:paused" ></circle>
<circle cx="1165.1645706535264" cy="0" transform="matrix(1,0,0,1,0,95.981689453125)" r="4.8585027019398055" fill="#0059ff" opacity="0.36000000000000004" style="transform:matrix(1, 0, 0, 1, 0, 95.9817);opacity:0.36;animation-play-state:paused" ></circle></g></svg>