<?xml version="1.0" encoding="utf-8"?>
<svg xmlns="http://www.w3.org/2000/svg" xmlns:xlink="http://www.w3.org/1999/xlink" style="margin: auto; background: rgb(241, 242, 243); display: block; z-index: 1; position: relative; shape-rendering: auto;" width="1597" height="772" preserveAspectRatio="xMidYMid" viewBox="0 0 1597 772">
<g transform="translate(798.5,386) scale(1,1) translate(-798.5,-386)"><defs>
<linearGradient id="lg-0.18642700134600187" x1="0" x2="0" y1="0" y2="1">
  <stop stop-color="#001d3f" offset="0.5"></stop>
  <stop stop-color="#0059ff" offset="0.75"></stop>
  <stop stop-color="#0059ff" offset="1"></stop>
</linearGradient>
<linearGradient id="fg-lg-0.18642700134600187" x1="0" x2="0" y1="0" y2="1">
  <stop stop-color="#001d3f" stop-opacity="1" offset="0.5"></stop>
  <stop stop-color="#0059ff" stop-opacity="0.66" offset="0.75"></stop>
  <stop stop-color="#0059ff" stop-opacity="0" offset="1"></stop>
</linearGradient>
<style type="text/css">
  path { fill: none; stroke: #001d3f; stroke-width: 2px }
</style>
</defs>
<rect x="0" y="0" width="1597" height="772" fill="url(#lg-0.18642700134600187)"></rect><path d="M0 386 L-11179 772"></path><path d="M19.9625 386 L-10879.5625 772"></path><path d="M39.925 386 L-10580.125 772"></path><path d="M59.8875 386 L-10280.6875 772"></path><path d="M79.85 386 L-9981.25 772"></path><path d="M99.8125 386 L-9681.8125 772"></path><path d="M119.775 386 L-9382.375 772"></path><path d="M139.7375 386 L-9082.9375 772"></path><path d="M159.7 386 L-8783.5 772"></path><path d="M179.6625 386 L-8484.0625 772"></path><path d="M199.625 386 L-8184.625 772"></path><path d="M219.5875 386 L-7885.1875 772"></path><path d="M239.55 386 L-7585.75 772"></path><path d="M259.5125 386 L-7286.3125 772"></path><path d="M279.475 386 L-6986.875 772"></path><path d="M299.4375 386 L-6687.4375 772"></path><path d="M319.4 386 L-6388 772"></path><path d="M339.3625 386 L-6088.5625 772"></path><path d="M359.325 386 L-5789.125 772"></path><path d="M379.2875 386 L-5489.6875 772"></path><path d="M399.25 386 L-5190.25 772"></path><path d="M419.2125 386 L-4890.8125 772"></path><path d="M439.175 386 L-4591.375 772"></path><path d="M459.1375 386 L-4291.9375 772"></path><path d="M479.1 386 L-3992.5 772"></path><path d="M499.0625 386 L-3693.0625 772"></path><path d="M519.025 386 L-3393.625 772"></path><path d="M538.9875 386 L-3094.1875 772"></path><path d="M558.95 386 L-2794.75 772"></path><path d="M578.9125 386 L-2495.3125 772"></path><path d="M598.875 386 L-2195.875 772"></path><path d="M618.8375 386 L-1896.4375 772"></path><path d="M638.8 386 L-1597 772"></path><path d="M658.7625 386 L-1297.5625 772"></path><path d="M678.725 386 L-998.125 772"></path><path d="M698.6875 386 L-698.6875 772"></path><path d="M718.65 386 L-399.25 772"></path><path d="M738.6125 386 L-99.8125 772"></path><path d="M758.575 386 L199.625 772"></path><path d="M778.5375 386 L499.0625 772"></path><path d="M798.5 386 L798.5 772"></path><path d="M818.4625 386 L1097.9375 772"></path><path d="M838.425 386 L1397.375 772"></path><path d="M858.3875 386 L1696.8125 772"></path><path d="M878.35 386 L1996.25 772"></path><path d="M898.3125 386 L2295.6875 772"></path><path d="M918.275 386 L2595.125 772"></path><path d="M938.2375 386 L2894.5625 772"></path><path d="M958.2 386 L3194 772"></path><path d="M978.1625 386 L3493.4375 772"></path><path d="M998.125 386 L3792.875 772"></path><path d="M1018.0875 386 L4092.3125 772"></path><path d="M1038.05 386 L4391.75 772"></path><path d="M1058.0125 386 L4691.1875 772"></path><path d="M1077.975 386 L4990.625 772"></path><path d="M1097.9375 386 L5290.0625 772"></path><path d="M1117.9 386 L5589.5 772"></path><path d="M1137.8625 386 L5888.9375 772"></path><path d="M1157.825 386 L6188.375 772"></path><path d="M1177.7875 386 L6487.8125 772"></path><path d="M1197.75 386 L6787.25 772"></path><path d="M1217.7125 386 L7086.6875 772"></path><path d="M1237.675 386 L7386.125 772"></path><path d="M1257.6375 386 L7685.5625 772"></path><path d="M1277.6 386 L7985 772"></path><path d="M1297.5625 386 L8284.4375 772"></path><path d="M1317.525 386 L8583.875 772"></path><path d="M1337.4875 386 L8883.3125 772"></path><path d="M1357.45 386 L9182.75 772"></path><path d="M1377.4125 386 L9482.1875 772"></path><path d="M1397.375 386 L9781.625 772"></path><path d="M1417.3375 386 L10081.0625 772"></path><path d="M1437.3 386 L10380.5 772"></path><path d="M1457.2625 386 L10679.9375 772"></path><path d="M1477.225 386 L10979.375 772"></path><path d="M1497.1875 386 L11278.8125 772"></path><path d="M1517.15 386 L11578.25 772"></path><path d="M1537.1125 386 L11877.6875 772"></path><path d="M1557.075 386 L12177.125 772"></path><path d="M1577.0375 386 L12476.5625 772"></path><path d="M1597 386 L12776 772"></path><g>
<path d="M0 386 L1597 386"></path>
<animateTransform attributeName="transform" type="translate" repeatCount="indefinite" calcMode="linear" keyTimes="0;1" values="0 0;0 7.72" begin="0s" dur="0.8333333333333334s"></animateTransform>

</g><g>
<path d="M0 393.72 L1597 393.72"></path>
<animateTransform attributeName="transform" type="translate" repeatCount="indefinite" calcMode="linear" keyTimes="0;1" values="0 0;0 15.440000000000001" begin="0s" dur="0.8333333333333334s"></animateTransform>

</g><g>
<path d="M0 409.16 L1597 409.16"></path>
<animateTransform attributeName="transform" type="translate" repeatCount="indefinite" calcMode="linear" keyTimes="0;1" values="0 0;0 23.16" begin="0s" dur="0.8333333333333334s"></animateTransform>

</g><g>
<path d="M0 432.32000000000005 L1597 432.32000000000005"></path>
<animateTransform attributeName="transform" type="translate" repeatCount="indefinite" calcMode="linear" keyTimes="0;1" values="0 0;0 30.880000000000003" begin="0s" dur="0.8333333333333334s"></animateTransform>

</g><g>
<path d="M0 463.20000000000005 L1597 463.20000000000005"></path>
<animateTransform attributeName="transform" type="translate" repeatCount="indefinite" calcMode="linear" keyTimes="0;1" values="0 0;0 38.6" begin="0s" dur="0.8333333333333334s"></animateTransform>

</g><g>
<path d="M0 501.80000000000007 L1597 501.80000000000007"></path>
<animateTransform attributeName="transform" type="translate" repeatCount="indefinite" calcMode="linear" keyTimes="0;1" values="0 0;0 46.32" begin="0s" dur="0.8333333333333334s"></animateTransform>

</g><g>
<path d="M0 548.1200000000001 L1597 548.1200000000001"></path>
<animateTransform attributeName="transform" type="translate" repeatCount="indefinite" calcMode="linear" keyTimes="0;1" values="0 0;0 54.04" begin="0s" dur="0.8333333333333334s"></animateTransform>

</g><g>
<path d="M0 602.1600000000001 L1597 602.1600000000001"></path>
<animateTransform attributeName="transform" type="translate" repeatCount="indefinite" calcMode="linear" keyTimes="0;1" values="0 0;0 61.760000000000005" begin="0s" dur="0.8333333333333334s"></animateTransform>

</g><g>
<path d="M0 663.9200000000001 L1597 663.9200000000001"></path>
<animateTransform attributeName="transform" type="translate" repeatCount="indefinite" calcMode="linear" keyTimes="0;1" values="0 0;0 69.48" begin="0s" dur="0.8333333333333334s"></animateTransform>

</g><g>
<path d="M0 733.4000000000001 L1597 733.4000000000001"></path>
<animateTransform attributeName="transform" type="translate" repeatCount="indefinite" calcMode="linear" keyTimes="0;1" values="0 0;0 77.2" begin="0s" dur="0.8333333333333334s"></animateTransform>

</g><rect x="0" y="0" width="1597" height="772" fill="url(#fg-lg-0.18642700134600187)"></rect></g>
</svg>