<svg xmlns="http://www.w3.org/2000/svg" viewBox="0 0 512 512"><path fill="#ffe177" fill-rule="evenodd" d="M121.527 35.197a67.912 67.912 0 0 1 17.828 7.393l22.317-16.158 17.857 17.857-16.158 22.317a67.971 67.971 0 0 1 7.392 17.828l27.198 4.354v25.254l-27.197 4.353a67.932 67.932 0 0 1-7.393 17.829l16.158 22.317-17.857 17.857-22.317-16.158a67.957 67.957 0 0 1-17.828 7.392l-4.353 27.198H91.919l-4.353-27.197a67.918 67.918 0 0 1-17.829-7.393L47.42 176.398l-17.858-17.857 16.158-22.317a67.971 67.971 0 0 1-7.392-17.828l-27.198-4.354V88.788l27.198-4.354a67.923 67.923 0 0 1 7.392-17.828L29.563 44.289l17.858-17.857 22.316 16.157a67.925 67.925 0 0 1 17.83-7.393L91.919 8h25.254l4.354 27.197z" clip-rule="evenodd"/><path fill="#ffd064" fill-rule="evenodd" d="M162.59 118.395a67.912 67.912 0 0 1-7.393 17.828l16.158 22.317-14.424 14.424 4.742 3.433 17.857-17.857-16.158-22.317a67.912 67.912 0 0 0 7.393-17.828l27.197-4.353V88.788l-27.198-4.354a67.971 67.971 0 0 0-7.392-17.828l16.158-22.317-17.857-17.857-4.742 3.433 14.424 14.424-16.158 22.317a67.971 67.971 0 0 1 7.392 17.828l27.198 4.354v25.254l-27.197 4.353z" clip-rule="evenodd"/><circle cx="104.546" cy="101.415" r="37.314" fill="#eceff1" fill-rule="evenodd" clip-rule="evenodd" transform="rotate(-79.1 104.54 101.41)"/><path fill="#d1d1d6" fill-rule="evenodd" d="M75.407 101.415c0 19.227 14.542 35.057 33.227 37.093a37.803 37.803 0 0 1-4.088.221c-20.608 0-37.314-16.706-37.314-37.314A37.16 37.16 0 0 1 71 85.055c6.063-12.408 18.806-20.954 33.546-20.954 1.381 0 2.745.075 4.088.221-14.729 1.605-26.884 11.782-31.37 25.438a37.242 37.242 0 0 0-1.857 11.655z" clip-rule="evenodd"/><path fill="#fe646f" fill-rule="evenodd" d="M53.131 345.163h44.83c5.508 0 10 4.493 10 10v131.622h-64.83V355.163c0-5.508 4.492-10 10-10z" clip-rule="evenodd"/><path fill="#fd4755" fill-rule="evenodd" d="M87.96 345.163h10c5.508 0 10 4.493 10 10v131.622h-10V355.163c0-5.507-4.492-10-10-10z" clip-rule="evenodd"/><path fill="#ffe177" fill-rule="evenodd" d="M218.34 279.999h-44.831c-5.508 0-10 4.492-10 10v196.787h64.83V289.999c.001-5.507-4.491-10-9.999-10z" clip-rule="evenodd"/><path fill="#ffd064" fill-rule="evenodd" d="M218.34 279.999h-10c5.508 0 10 4.492 10 10v196.787h10V289.999c0-5.507-4.492-10-10-10z" clip-rule="evenodd"/><path fill="#6cf5c2" fill-rule="evenodd" d="M338.719 211.956h-44.83c-5.507 0-10 4.493-10 10v264.83h64.829v-264.83c0-5.508-4.492-10-9.999-10z" clip-rule="evenodd"/><path fill="#00e499" fill-rule="evenodd" d="M338.719 211.956h-10c5.507 0 10 4.492 10 10v264.83h10v-264.83c-.001-5.508-4.493-10-10-10z" clip-rule="evenodd"/><path fill="#8ac9fe" fill-rule="evenodd" d="M414.264 150.745h44.83c5.508 0 10 4.493 10 10v326.04h-64.83v-326.04c0-5.508 4.492-10 10-10z" clip-rule="evenodd"/><path fill="#60b7ff" fill-rule="evenodd" d="M449.094 150.745h10c5.508 0 10 4.493 10 10v326.04h-10v-326.04c0-5.507-4.492-10-10-10z" clip-rule="evenodd"/><path fill="#a79ba7" fill-rule="evenodd" d="M28.932 301.297a7.976 7.976 0 0 1-5.25-15.062c70.682-24.615 143.497-56.245 215.557-97.316 67.412-38.422 134.178-85.131 197.935-142.12l-29.52 1.602a7.98 7.98 0 0 1-.812-15.938l51.847-2.814a7.98 7.98 0 0 1 8.307 9.093l.004.002-7.482 51.381a7.986 7.986 0 0 1-15.812-2.25l4.268-29.313c-64.664 57.82-132.422 105.224-200.861 144.232-72.942 41.575-146.644 73.59-218.181 98.503z" clip-rule="evenodd"/><path fill="#837683" fill-rule="evenodd" d="M21.356 469.535h469.513c5.508 0 10 4.492 10 10V494c0 5.508-4.492 10-10 10H21.356c-5.508 0-10-4.492-10-10v-14.465c.001-5.508 4.493-10 10-10z" clip-rule="evenodd"/><path fill="#685e68" fill-rule="evenodd" d="M490.868 469.535c5.508 0 10 4.492 10 10V494c0 5.508-4.492 10-10 10H21.356c-5.508 0-10-4.492-10-10h469.512c5.508 0 10-4.492 10-10v-14.465z" clip-rule="evenodd"/></svg>