<?xml version="1.0" encoding="utf-8"?><svg xmlns="http://www.w3.org/2000/svg" xmlns:xlink="http://www.w3.org/1999/xlink" width="1597" height="772" preserveAspectRatio="xMidYMid" viewBox="0 0 1597 772" style="z-index:1;margin-right:-2px;display:block;background-repeat-y:initial;background-repeat-x:initial;background-color:rgb(0, 29, 63);animation-play-state:paused" ><g transform="translate(798.5,386) scale(1,1) translate(-798.5,-386)" style="transform:matrix(1, 0, 0, 1, 0, 0);animation-play-state:paused" ><defs style="animation-play-state:paused" ><filter id="blur-d857hrdyu4q-1" x="-1" y="-1" width="3" height="3" style="animation-play-state:paused" ><feGaussianBlur stdDeviation="3" style="animation-play-state:paused" ></feGaussianBlur></filter>
<filter id="blur-d857hrdyu4q-2" x="-1" y="-1" width="3" height="3" style="animation-play-state:paused" ><feGaussianBlur stdDeviation="1.5" style="animation-play-state:paused" ></feGaussianBlur></filter>
<filter id="blur-d857hrdyu4q-3" x="-1" y="-1" width="3" height="3" style="animation-play-state:paused" ><feGaussianBlur stdDeviation="1" style="animation-play-state:paused" ></feGaussianBlur></filter></defs>
<circle cx="1201.4161986935208" cy="0" transform="matrix(1,0,0,1,0,636.8571166992188)" r="10.434650396818942" fill="#00b2ff" opacity="0.63" style="transform:matrix(1, 0, 0, 1, 0, 636.857);opacity:0.63;animation-play-state:paused" ></circle>
<circle cx="685.221251388486" cy="0" transform="matrix(1,0,0,1,0,9.0318603515625)" r="9.484555862031133" fill="#001d3f" opacity="0.63" style="transform:matrix(1, 0, 0, 1, 0, 9.03186);opacity:0.63;animation-play-state:paused" ></circle>
<circle cx="79.21070648874245" cy="0" transform="matrix(1,0,0,1,0,702.9246215820312)" r="14.96781063266512" fill="#00b2ff" opacity="0.7200000000000001" style="transform:matrix(1, 0, 0, 1, 0, 702.925);opacity:0.72;animation-play-state:paused" ></circle>
<circle cx="929.7407634612913" cy="0" transform="matrix(1,0,0,1,0,466.73419189453125)" r="13.899221980741718" fill="#00b2ff" opacity="0.7200000000000001" style="transform:matrix(1, 0, 0, 1, 0, 466.734);opacity:0.72;animation-play-state:paused" ></circle>
<circle cx="124.31013153822488" cy="0" transform="matrix(1,0,0,1,0,682.7250366210938)" r="5.2971731992972195" fill="#001d3f" opacity="0.36000000000000004" style="transform:matrix(1, 0, 0, 1, 0, 682.725);opacity:0.36;animation-play-state:paused" ></circle>
<circle cx="1278.4500691867077" cy="0" transform="matrix(1,0,0,1,0,692.84033203125)" r="9.832877551288554" fill="#0059ff" opacity="0.63" style="transform:matrix(1, 0, 0, 1, 0, 692.84);opacity:0.63;animation-play-state:paused" ></circle>
<circle cx="555.1049186881019" cy="0" transform="matrix(1,0,0,1,0,394.4573059082031)" r="8.733736064602207" fill="#001d3f" opacity="0.63" style="transform:matrix(1, 0, 0, 1, 0, 394.457);opacity:0.63;animation-play-state:paused" ></circle>
<circle cx="749.3897650808675" cy="0" transform="matrix(1,0,0,1,0,269.068603515625)" r="7.670290709183062" fill="#00b2ff" opacity="0.36000000000000004" style="transform:matrix(1, 0, 0, 1, 0, 269.069);opacity:0.36;animation-play-state:paused" ></circle>
<circle cx="1483.412037091072" cy="0" transform="matrix(1,0,0,1,0,138.2080078125)" r="9.321735940980801" fill="#001d3f" opacity="0.63" style="transform:matrix(1, 0, 0, 1, 0, 138.208);opacity:0.63;animation-play-state:paused" ></circle>
<circle cx="857.8741721908625" cy="0" transform="matrix(1,0,0,1,0,4.7261962890625)" r="14.089890342680892" fill="#00b2ff" opacity="0.7200000000000001" style="transform:matrix(1, 0, 0, 1, 0, 4.7262);opacity:0.72;animation-play-state:paused" ></circle>
<circle cx="290.35054202874096" cy="0" transform="matrix(1,0,0,1,0,615.5330810546875)" r="7.971486986157879" fill="#0059ff" opacity="0.36000000000000004" style="transform:matrix(1, 0, 0, 1, 0, 615.533);opacity:0.36;animation-play-state:paused" ></circle>
<circle cx="562.1759161375833" cy="0" transform="matrix(1,0,0,1,0,131.876708984375)" r="9.58349245551154" fill="#00b2ff" opacity="0.63" style="transform:matrix(1, 0, 0, 1, 0, 131.877);opacity:0.63;animation-play-state:paused" ></circle>
<circle cx="408.9577867951114" cy="0" transform="matrix(1,0,0,1,0,206.9923095703125)" r="5.926325400697886" fill="#0059ff" opacity="0.36000000000000004" style="transform:matrix(1, 0, 0, 1, 0, 206.992);opacity:0.36;animation-play-state:paused" ></circle>
<circle cx="1341.08783015951" cy="0" transform="matrix(1,0,0,1,0,680.00830078125)" r="11.858576944406284" fill="#001d3f" opacity="0.63" style="transform:matrix(1, 0, 0, 1, 0, 680.008);opacity:0.63;animation-play-state:paused" ></circle>
<circle cx="504.7003804323403" cy="0" transform="matrix(1,0,0,1,0,728.4343872070312)" r="9.967592467143259" fill="#00b2ff" opacity="0.63" style="transform:matrix(1, 0, 0, 1, 0, 728.434);opacity:0.63;animation-play-state:paused" ></circle>
<circle cx="1110.2470753008345" cy="0" transform="matrix(1,0,0,1,0,565.4368896484375)" r="5.355150125555415" fill="#00b2ff" opacity="0.36000000000000004" style="transform:matrix(1, 0, 0, 1, 0, 565.437);opacity:0.36;animation-play-state:paused" ></circle>
<circle cx="861.12545770338" cy="0" transform="matrix(1,0,0,1,0,648.1062622070312)" r="15.3150623297063" fill="#001d3f" opacity="0.7200000000000001" style="transform:matrix(1, 0, 0, 1, 0, 648.106);opacity:0.72;animation-play-state:paused" ></circle>
<circle cx="471.8672236717865" cy="0" transform="matrix(1,0,0,1,0,426.2008972167969)" r="12.923507038236018" fill="#0059ff" opacity="0.7200000000000001" style="transform:matrix(1, 0, 0, 1, 0, 426.201);opacity:0.72;animation-play-state:paused" ></circle>
<circle cx="884.7362909450646" cy="0" transform="matrix(1,0,0,1,0,114.95196533203125)" r="14.380839193017536" fill="#0059ff" opacity="0.7200000000000001" style="transform:matrix(1, 0, 0, 1, 0, 114.952);opacity:0.72;animation-play-state:paused" ></circle>
<circle cx="790.620466725376" cy="0" transform="matrix(1,0,0,1,0,571.4467163085938)" r="5.367976865709123" fill="#0059ff" opacity="0.36000000000000004" style="transform:matrix(1, 0, 0, 1, 0, 571.447);opacity:0.36;animation-play-state:paused" ></circle>
<circle cx="1239.8123498614734" cy="0" transform="matrix(1,0,0,1,0,380.8197021484375)" r="6.982503086795999" fill="#0059ff" opacity="0.36000000000000004" style="transform:matrix(1, 0, 0, 1, 0, 380.82);opacity:0.36;animation-play-state:paused" ></circle>
<circle cx="885.0466743177766" cy="0" transform="matrix(1,0,0,1,0,369.16748046875)" r="4.889195246096843" fill="#001d3f" opacity="0.36000000000000004" style="transform:matrix(1, 0, 0, 1, 0, 369.167);opacity:0.36;animation-play-state:paused" ></circle>
<circle cx="430.21586759754655" cy="0" transform="matrix(1,0,0,1,0,435.97845458984375)" r="7.768203591020903" fill="#0059ff" opacity="0.36000000000000004" style="transform:matrix(1, 0, 0, 1, 0, 435.978);opacity:0.36;animation-play-state:paused" ></circle>
<circle cx="257.82126128749553" cy="0" transform="matrix(1,0,0,1,0,352.53228759765625)" r="10.437101437664143" fill="#00b2ff" opacity="0.63" style="transform:matrix(1, 0, 0, 1, 0, 352.532);opacity:0.63;animation-play-state:paused" ></circle>
<circle cx="163.1893281005385" cy="0" transform="matrix(1,0,0,1,0,67.9349365234375)" r="11.766140171526935" fill="#0059ff" opacity="0.63" style="transform:matrix(1, 0, 0, 1, 0, 67.9349);opacity:0.63;animation-play-state:paused" ></circle>
<circle cx="1561.5313756034159" cy="0" transform="matrix(1,0,0,1,0,557.4208374023438)" r="6.461950537173784" fill="#0059ff" opacity="0.36000000000000004" style="transform:matrix(1, 0, 0, 1, 0, 557.421);opacity:0.36;animation-play-state:paused" ></circle></g></svg>