<?xml version="1.0" encoding="utf-8"?>
<svg xmlns="http://www.w3.org/2000/svg" xmlns:xlink="http://www.w3.org/1999/xlink" style="margin: auto; background: rgb(0, 29, 63); display: block; z-index: 1; position: relative; shape-rendering: auto;" width="1597" height="772" preserveAspectRatio="xMidYMid" viewBox="0 0 1597 772">
<g transform="translate(798.5,386) scale(1,1) translate(-798.5,-386)"><path id="path0" d="M 348.066905816271 434.62300047127945
c 0 22.776124205635732 -5.572881454570445 6.542078229278349 -12.114959683848793 6.542078229278349
S 323.83698644857344 457.39912467691516 323.83698644857344 434.62300047127945
s 5.572881454570445 -6.542078229278349 12.114959683848793 -6.542078229278349
S 348.066905816271 411.84687626564374 348.066905816271 434.62300047127945
z" fill="none" stroke="none"></path>
<circle cx="0" cy="0" r="6.560479522874044" fill="#003b9f" opacity="0.9">
  <animateMotion begin="-13.474825809135321s" dur="14.24s" repeatCount="indefinite">
    <mpath xlink:href="#path0"></mpath>
  </animateMotion>
</circle><path id="path1" d="M 760.3571696949537 372.34473896990215
c 0 28.041818296867323 -6.86129596625477 8.054564829951252 -14.915860796206022 8.054564829951252
S 730.5254481025415 400.3865572667695 730.5254481025415 372.34473896990215
s 6.86129596625477 -8.054564829951252 14.915860796206022 -8.054564829951252
S 760.3571696949537 344.3029206730348 760.3571696949537 372.34473896990215
z" fill="none" stroke="none"></path>
<circle cx="0" cy="0" r="6.313684993366194" fill="#00b2ff" opacity="0.9">
  <animateMotion begin="-6.003786470816907s" dur="14.24s" repeatCount="indefinite">
    <mpath xlink:href="#path1"></mpath>
  </animateMotion>
</circle><path id="path2" d="M 1326.5861046800321 59.43101363940117
c 0 28.494321748296155 -6.972014895859697 8.184539225574428 -15.156554121434125 8.184539225574428
S 1296.272996437164 87.92533538769733 1296.272996437164 59.43101363940117
s 6.972014895859697 -8.184539225574428 15.156554121434125 -8.184539225574428
S 1326.5861046800321 30.936691891105017 1326.5861046800321 59.43101363940117
z" fill="none" stroke="none"></path>
<circle cx="0" cy="0" r="6.640516833409847" fill="#003b9f" opacity="0.9">
  <animateMotion begin="-7.1224109526468675s" dur="14.24s" repeatCount="indefinite">
    <mpath xlink:href="#path2"></mpath>
  </animateMotion>
</circle><path id="path3" d="M 1199.5139520291077 648.5855056277247
c 0 24.059177386779783 -5.886819998892926 6.9106147813090875 -12.797434780202012 6.9106147813090875
S 1173.919082468704 672.6446830145045 1173.919082468704 648.5855056277247
s 5.886819998892926 -6.9106147813090875 12.797434780202012 -6.9106147813090875
S 1199.5139520291077 624.526328240945 1199.5139520291077 648.5855056277247
z" fill="none" stroke="none"></path>
<circle cx="0" cy="0" r="5.0916399215552826" fill="#0071fb" opacity="0.9">
  <animateMotion begin="-9.083593688422795s" dur="14.24s" repeatCount="indefinite">
    <mpath xlink:href="#path3"></mpath>
  </animateMotion>
</circle><path id="path4" d="M 63.99060854267735 580.0578125635799
c 0 33.91787045050041 -8.299053408101164 9.74236704429267 -18.041420452393837 9.74236704429267
S 27.907767637889677 613.9756830140803 27.907767637889677 580.0578125635799
s 8.299053408101164 -9.74236704429267 18.041420452393837 -9.74236704429267
S 63.99060854267735 546.1399421130794 63.99060854267735 580.0578125635799
z" fill="none" stroke="none"></path>
<circle cx="0" cy="0" r="5.106569061407749" fill="#0071fb" opacity="0.9">
  <animateMotion begin="-2.243294285228544s" dur="14.24s" repeatCount="indefinite">
    <mpath xlink:href="#path4"></mpath>
  </animateMotion>
</circle><path id="path5" d="M 1567.0541125057387 317.89070295343953
c 0 21.105263790524724 -5.16405390619222 6.062150237703911 -11.22620414389613 6.062150237703911
S 1544.6017042179462 338.99596674396423 1544.6017042179462 317.89070295343953
s 5.16405390619222 -6.062150237703911 11.22620414389613 -6.062150237703911
S 1567.0541125057387 296.7854391629148 1567.0541125057387 317.89070295343953
z" fill="none" stroke="none"></path>
<circle cx="0" cy="0" r="6.705199185115693" fill="#00b2ff" opacity="0.9">
  <animateMotion begin="-3.9248877021211865s" dur="14.24s" repeatCount="indefinite">
    <mpath xlink:href="#path5"></mpath>
  </animateMotion>
</circle><path id="path6" d="M 156.69532100474416 374.2525543237207
c 0 25.338617584231056 -6.199874515290577 7.278113561428069 -13.477988076718646 7.278113561428069
S 129.73934485130687 399.5911719079517 129.73934485130687 374.2525543237207
s 6.199874515290577 -7.278113561428069 13.477988076718646 -7.278113561428069
S 156.69532100474416 348.91393673948966 156.69532100474416 374.2525543237207
z" fill="none" stroke="none"></path>
<circle cx="0" cy="0" r="7.0498915080536015" fill="#0071fb" opacity="0.9">
  <animateMotion begin="-0.6805700402871737s" dur="14.24s" repeatCount="indefinite">
    <mpath xlink:href="#path6"></mpath>
  </animateMotion>
</circle><path id="path7" d="M 753.3295326842206 465.0413146899261
c 0 32.755631794554986 -8.014675864625156 9.40853253673388 -17.423208401359037 9.40853253673388
S 718.4831158815025 497.79694648448105 718.4831158815025 465.0413146899261
s 8.014675864625156 -9.40853253673388 17.423208401359037 -9.40853253673388
S 753.3295326842206 432.2856828953711 753.3295326842206 465.0413146899261
z" fill="none" stroke="none"></path>
<circle cx="0" cy="0" r="6.5990636165947345" fill="#003b9f" opacity="0.9">
  <animateMotion begin="-3.419489194414633s" dur="14.24s" repeatCount="indefinite">
    <mpath xlink:href="#path7"></mpath>
  </animateMotion>
</circle><path id="path8" d="M 593.4564271276619 354.6706449980074
c 0 31.008091261849795 -7.5870861598143104 8.906579404999409 -16.49366556481372 8.906579404999409
S 560.4690959980345 385.6787362598572 560.4690959980345 354.6706449980074
s 7.5870861598143104 -8.906579404999409 16.49366556481372 -8.906579404999409
S 593.4564271276619 323.6625537361576 593.4564271276619 354.6706449980074
z" fill="none" stroke="none"></path>
<circle cx="0" cy="0" r="7.48190851961007" fill="#0071fb" opacity="0.9">
  <animateMotion begin="-3.9883003343785166s" dur="14.24s" repeatCount="indefinite">
    <mpath xlink:href="#path8"></mpath>
  </animateMotion>
</circle><path id="path9" d="M 384.4798985417083 17.065837865147913
c 0 24.48116268942641 -5.990071721880929 7.031823325686309 -13.021895047567238 7.031823325686309
S 358.4361084465738 41.547000554574325 358.4361084465738 17.065837865147913
s 5.990071721880929 -7.031823325686309 13.021895047567238 -7.031823325686309
S 384.4798985417083 -7.415324824278496 384.4798985417083 17.065837865147913
z" fill="none" stroke="none"></path>
<circle cx="0" cy="0" r="7.60688775217918" fill="#00b2ff" opacity="0.9">
  <animateMotion begin="-12.058248028828631s" dur="14.24s" repeatCount="indefinite">
    <mpath xlink:href="#path9"></mpath>
  </animateMotion>
</circle><path id="path10" d="M 1453.3541241945452 740.1221489682737
c 0 33.22667994003122 -8.129932325752318 9.543833599796201 -17.67376592554852 9.543833599796201
S 1418.0065923434483 773.3488289083049 1418.0065923434483 740.1221489682737
s 8.129932325752318 -9.543833599796201 17.67376592554852 -9.543833599796201
S 1453.3541241945452 706.8954690282425 1453.3541241945452 740.1221489682737
z" fill="none" stroke="none"></path>
<circle cx="0" cy="0" r="4.13188009843031" fill="#0059ff" opacity="0.9">
  <animateMotion begin="-11.103994368174838s" dur="14.24s" repeatCount="indefinite">
    <mpath xlink:href="#path10"></mpath>
  </animateMotion>
</circle><path id="path11" d="M 376.743104273917 279.00666383196074
c 0 18.963763618647118 -4.640069821583869 5.447038486207151 -10.08710830779102 5.447038486207151
S 356.568887658335 297.9704274506079 356.568887658335 279.00666383196074
s 4.640069821583869 -5.447038486207151 10.08710830779102 -5.447038486207151
S 376.743104273917 260.0429002133136 376.743104273917 279.00666383196074
z" fill="none" stroke="none"></path>
<circle cx="0" cy="0" r="5.795812534512663" fill="#0071fb" opacity="0.9">
  <animateMotion begin="-2.163254720012899s" dur="14.24s" repeatCount="indefinite">
    <mpath xlink:href="#path11"></mpath>
  </animateMotion>
</circle><path id="path12" d="M 982.0803121075346 317.8549897297416
c 0 23.162702246477153 -5.66746969860611 6.653116602711522 -12.320586301317633 6.653116602711522
S 957.4391395048995 341.01769197621877 957.4391395048995 317.8549897297416
s 5.66746969860611 -6.653116602711522 12.320586301317633 -6.653116602711522
S 982.0803121075346 294.6922874832644 982.0803121075346 317.8549897297416
z" fill="none" stroke="none"></path>
<circle cx="0" cy="0" r="7.953515718321643" fill="#00b2ff" opacity="0.9">
  <animateMotion begin="-2.9677770396163266s" dur="14.24s" repeatCount="indefinite">
    <mpath xlink:href="#path12"></mpath>
  </animateMotion>
</circle><path id="path13" d="M 81.43222759870812 350.05579232895235
c 0 36.05992158955229 -8.823172303826622 10.35763705231821 -19.18080935614483 10.35763705231821
S 43.07060888641847 386.11571391850464 43.07060888641847 350.05579232895235
s 8.823172303826622 -10.35763705231821 19.18080935614483 -10.35763705231821
S 81.43222759870812 313.99587073940006 81.43222759870812 350.05579232895235
z" fill="none" stroke="none"></path>
<circle cx="0" cy="0" r="5.149963671971987" fill="#003b9f" opacity="0.9">
  <animateMotion begin="-13.233096496072646s" dur="14.24s" repeatCount="indefinite">
    <mpath xlink:href="#path13"></mpath>
  </animateMotion>
</circle><path id="path14" d="M 535.6770289487346 523.8661102093013
c 0 26.562250530035598 -6.499274065859773 7.629582599052779 -14.128856664912552 7.629582599052779
S 507.4193156189095 550.4283607393369 507.4193156189095 523.8661102093013
s 6.499274065859773 -7.629582599052779 14.128856664912552 -7.629582599052779
S 535.6770289487346 497.30385967926566 535.6770289487346 523.8661102093013
z" fill="none" stroke="none"></path>
<circle cx="0" cy="0" r="6.95811093681195" fill="#003b9f" opacity="0.9">
  <animateMotion begin="-6.5409342640666335s" dur="14.24s" repeatCount="indefinite">
    <mpath xlink:href="#path14"></mpath>
  </animateMotion>
</circle><path id="path15" d="M 1104.9986987916604 499.0601316406951
c 0 23.216644194597812 -5.680668260380315 6.668610566533415 -12.34927882691373 6.668610566533415
S 1080.3001411378332 522.2767758352929 1080.3001411378332 499.0601316406951
s 5.680668260380315 -6.668610566533415 12.34927882691373 -6.668610566533415
S 1104.9986987916604 475.8434874460973 1104.9986987916604 499.0601316406951
z" fill="none" stroke="none"></path>
<circle cx="0" cy="0" r="5.400713528471375" fill="#0071fb" opacity="0.9">
  <animateMotion begin="-4.684821365912238s" dur="14.24s" repeatCount="indefinite">
    <mpath xlink:href="#path15"></mpath>
  </animateMotion>
</circle><path id="path16" d="M 897.6238287483071 632.6594810794028
c 0 24.20108247002079 -5.921541455430619 6.951374752027249 -12.872916207457868 6.951374752027249
S 871.8779963333915 656.8605635494235 871.8779963333915 632.6594810794028
s 5.921541455430619 -6.951374752027249 12.872916207457868 -6.951374752027249
S 897.6238287483071 608.458398609382 897.6238287483071 632.6594810794028
z" fill="none" stroke="none"></path>
<circle cx="0" cy="0" r="7.129916412537299" fill="#00b2ff" opacity="0.9">
  <animateMotion begin="-6.47381290183852s" dur="14.24s" repeatCount="indefinite">
    <mpath xlink:href="#path16"></mpath>
  </animateMotion>
</circle><path id="path17" d="M 731.3642514804693 662.8479813168714
c 0 25.96898865498823 -6.35411424536946 7.459177592390236 -13.813291837759696 7.459177592390236
S 703.7376678049499 688.8169699718596 703.7376678049499 662.8479813168714
s 6.35411424536946 -7.459177592390236 13.813291837759696 -7.459177592390236
S 731.3642514804693 636.8789926618831 731.3642514804693 662.8479813168714
z" fill="none" stroke="none"></path>
<circle cx="0" cy="0" r="4.755699422189676" fill="#003b9f" opacity="0.9">
  <animateMotion begin="-6.941701951642243s" dur="14.24s" repeatCount="indefinite">
    <mpath xlink:href="#path17"></mpath>
  </animateMotion>
</circle><path id="path18" d="M 104.8271127230315 263.1900104742636
c 0 37.4063828577966 -9.152625592865125 10.74438656553732 -19.897012158402447 10.74438656553732
S 65.03308840622661 300.5963933320602 65.03308840622661 263.1900104742636
s 9.152625592865125 -10.74438656553732 19.897012158402447 -10.74438656553732
S 104.8271127230315 225.78362761646702 104.8271127230315 263.1900104742636
z" fill="none" stroke="none"></path>
<circle cx="0" cy="0" r="7.580512797972842" fill="#0071fb" opacity="0.9">
  <animateMotion begin="-12.150634320742922s" dur="14.24s" repeatCount="indefinite">
    <mpath xlink:href="#path18"></mpath>
  </animateMotion>
</circle><path id="path19" d="M 1038.6651100100776 140.33653079812993
c 0 21.008039753684372 -5.14026504611426 6.034224184568915 -11.174489230683175 6.034224184568915
S 1016.3161315487113 161.3445705518143 1016.3161315487113 140.33653079812993
s 5.14026504611426 -6.034224184568915 11.174489230683175 -6.034224184568915
S 1038.6651100100776 119.32849104444556 1038.6651100100776 140.33653079812993
z" fill="none" stroke="none"></path>
<circle cx="0" cy="0" r="4.091970605766627" fill="#003b9f" opacity="0.9">
  <animateMotion begin="-12.290709968585904s" dur="14.24s" repeatCount="indefinite">
    <mpath xlink:href="#path19"></mpath>
  </animateMotion>
</circle><path id="path20" d="M 436.38143514096316 93.77445168996894
c 0 19.150752220460006 -4.685822351814682 5.500747978217237 -10.18657033003192 5.500747978217237
S 416.0082944808993 112.92520391042895 416.0082944808993 93.77445168996894
s 4.685822351814682 -5.500747978217237 10.18657033003192 -5.500747978217237
S 436.38143514096316 74.62369946950894 436.38143514096316 93.77445168996894
z" fill="none" stroke="none"></path>
<circle cx="0" cy="0" r="7.5039295059928985" fill="#0059ff" opacity="0.9">
  <animateMotion begin="-13.420549241422746s" dur="14.24s" repeatCount="indefinite">
    <mpath xlink:href="#path20"></mpath>
  </animateMotion>
</circle><path id="path21" d="M 680.3123542859358 28.64673921264825
c 0 24.514997363565193 -5.998350418744674 7.041541795917662 -13.039892214662336 7.041541795917662
S 654.2325698566111 53.16173657621344 654.2325698566111 28.64673921264825
s 5.998350418744674 -7.041541795917662 13.039892214662336 -7.041541795917662
S 680.3123542859358 4.131741849083056 680.3123542859358 28.64673921264825
z" fill="none" stroke="none"></path>
<circle cx="0" cy="0" r="7.1735461709673505" fill="#0059ff" opacity="0.9">
  <animateMotion begin="-6.166858313855986s" dur="14.24s" repeatCount="indefinite">
    <mpath xlink:href="#path21"></mpath>
  </animateMotion>
</circle><path id="path22" d="M 483.12451091708874 165.7069250560453
c 0 21.287937371866757 -5.208750633541866 6.114620308940452 -11.323370942482319 6.114620308940452
S 460.4777690321241 186.99486242791204 460.4777690321241 165.7069250560453
s 5.208750633541866 -6.114620308940452 11.323370942482319 -6.114620308940452
S 483.12451091708874 144.41898768417855 483.12451091708874 165.7069250560453
z" fill="none" stroke="none"></path>
<circle cx="0" cy="0" r="6.973612179678006" fill="#0059ff" opacity="0.9">
  <animateMotion begin="-4.987792903806731s" dur="14.24s" repeatCount="indefinite">
    <mpath xlink:href="#path22"></mpath>
  </animateMotion>
</circle><path id="path23" d="M 177.58127437184652 603.0500322072616
c 0 34.3251188022199 -8.39869928139423 9.859342634680184 -18.25804191607441 9.859342634680184
S 141.0651905396977 637.3751510094814 141.0651905396977 603.0500322072616
s 8.39869928139423 -9.859342634680184 18.25804191607441 -9.859342634680184
S 177.58127437184652 568.7249134050417 177.58127437184652 603.0500322072616
z" fill="none" stroke="none"></path>
<circle cx="0" cy="0" r="5.222468894876276" fill="#0071fb" opacity="0.9">
  <animateMotion begin="-11.858919692513311s" dur="14.24s" repeatCount="indefinite">
    <mpath xlink:href="#path23"></mpath>
  </animateMotion>
</circle><path id="path24" d="M 54.78322493768795 685.5349820333981
c 0 34.17242364686446 -8.361337700828535 9.815483387929152 -18.176821088757688 9.815483387929152
S 18.42958276017257 719.7074056802626 18.42958276017257 685.5349820333981
s 8.361337700828535 -9.815483387929152 18.176821088757688 -9.815483387929152
S 54.78322493768795 651.3625583865337 54.78322493768795 685.5349820333981
z" fill="none" stroke="none"></path>
<circle cx="0" cy="0" r="5.57812599439729" fill="#0071fb" opacity="0.9">
  <animateMotion begin="-12.102080795123674s" dur="14.24s" repeatCount="indefinite">
    <mpath xlink:href="#path24"></mpath>
  </animateMotion>
</circle><path id="path25" d="M 1122.63821688423 136.193319644108
c 0 22.472663872712005 -5.498630522046553 6.454914091098129 -11.953544613144683 6.454914091098129
S 1098.7311276579405 158.66598351682 1098.7311276579405 136.193319644108
s 5.498630522046553 -6.454914091098129 11.953544613144683 -6.454914091098129
S 1122.63821688423 113.72065577139598 1122.63821688423 136.193319644108
z" fill="none" stroke="none"></path>
<circle cx="0" cy="0" r="4.065121866126545" fill="#003b9f" opacity="0.9">
  <animateMotion begin="-12.741502223355921s" dur="14.24s" repeatCount="indefinite">
    <mpath xlink:href="#path25"></mpath>
  </animateMotion>
</circle><path id="path26" d="M 791.0275959492903 265.8444894270062
c 0 31.66703978943803 -7.748318246351857 9.09585185441305 -16.84417010076491 9.09585185441305
S 757.3392557477605 297.5115292164442 757.3392557477605 265.8444894270062
s 7.748318246351857 -9.09585185441305 16.84417010076491 -9.09585185441305
S 791.0275959492903 234.17744963756815 791.0275959492903 265.8444894270062
z" fill="none" stroke="none"></path>
<circle cx="0" cy="0" r="4.594692342420084" fill="#0071fb" opacity="0.9">
  <animateMotion begin="-2.3673302731199386s" dur="14.24s" repeatCount="indefinite">
    <mpath xlink:href="#path26"></mpath>
  </animateMotion>
</circle><path id="path27" d="M 1378.5114275545657 168.75835469278547
c 0 31.50434556739822 -7.70851008563999 9.049120535316511 -16.7576306209565 9.049120535316511
S 1344.9961663126528 200.2627002601837 1344.9961663126528 168.75835469278547
s 7.70851008563999 -9.049120535316511 16.7576306209565 -9.049120535316511
S 1378.5114275545657 137.25400912538726 1378.5114275545657 168.75835469278547
z" fill="none" stroke="none"></path>
<circle cx="0" cy="0" r="7.075112312657879" fill="#0059ff" opacity="0.9">
  <animateMotion begin="-8.832185727516876s" dur="14.24s" repeatCount="indefinite">
    <mpath xlink:href="#path27"></mpath>
  </animateMotion>
</circle><path id="path28" d="M 970.6831672390637 201.9723160166014
c 0 25.223086305853037 -6.171606223772551 7.244929045298213 -13.416535269070764 7.244929045298213
S 943.8500967009221 227.19540232245444 943.8500967009221 201.9723160166014
s 6.171606223772551 -7.244929045298213 13.416535269070764 -7.244929045298213
S 970.6831672390637 176.74922971074838 970.6831672390637 201.9723160166014
z" fill="none" stroke="none"></path>
<circle cx="0" cy="0" r="6.133708707148071" fill="#00b2ff" opacity="0.9">
  <animateMotion begin="-2.469792021037025s" dur="14.24s" repeatCount="indefinite">
    <mpath xlink:href="#path28"></mpath>
  </animateMotion>
</circle><path id="path29" d="M 848.2233018881395 110.25015242393204
c 0 32.27126041518167 -7.896159463289132 9.269404587339418 -17.16556405062855 9.269404587339418
S 813.8921737868825 142.5214128391137 813.8921737868825 110.25015242393204
s 7.896159463289132 -9.269404587339418 17.16556405062855 -9.269404587339418
S 848.2233018881395 77.97889200875036 848.2233018881395 110.25015242393204
z" fill="none" stroke="none"></path>
<circle cx="0" cy="0" r="4.299338693020853" fill="#0071fb" opacity="0.9">
  <animateMotion begin="-13.453088805780249s" dur="14.24s" repeatCount="indefinite">
    <mpath xlink:href="#path29"></mpath>
  </animateMotion>
</circle></g>
</svg>