<?xml version="1.0" encoding="utf-8"?><svg xmlns="http://www.w3.org/2000/svg" xmlns:xlink="http://www.w3.org/1999/xlink" width="1597" height="772" preserveAspectRatio="xMidYMid" viewBox="0 0 1597 772" style="z-index:1;margin-right:-2px;display:block;background-repeat-y:initial;background-repeat-x:initial;background-color:rgb(0, 29, 63);animation-play-state:paused" ><g transform="translate(798.5,386) scale(1,1) translate(-798.5,-386)" style="transform:matrix(1, 0, 0, 1, 0, 0);animation-play-state:paused" ><path id="path0" d="M 296.29373114659074 348.49259515539245
c 0 23.32865171682194 -5.7080743562436655 6.700782939938217 -12.408857296181884 6.700782939938217
S 271.47601655422693 371.8212468722144 271.47601655422693 348.49259515539245
s 5.7080743562436655 -6.700782939938217 12.408857296181884 -6.700782939938217
S 296.29373114659074 325.1639434385705 296.29373114659074 348.49259515539245
z" fill="none" stroke="none" style="animation-play-state:paused" ></path>


<circle cx="0" cy="0" r="7.025327648388656" fill="#00b2ff" opacity="0.9" transform="translate(296.27166748046875 350.84942626953125)" style="opacity:0.9;animation-play-state:paused" ></circle>
<path id="path1" d="M 882.5761347066147 546.8278799895864
c 0 22.21013824763295 -5.434395528676147 6.379507794532869 -11.813903323209017 6.379507794532869
S 858.9483280601966 569.0380182372194 858.9483280601966 546.8278799895864
s 5.434395528676147 -6.379507794532869 11.813903323209017 -6.379507794532869
S 882.5761347066147 524.6177417419535 882.5761347066147 546.8278799895864
z" fill="none" stroke="none" style="animation-play-state:paused" ></path>


<circle cx="0" cy="0" r="4.677737638463457" fill="#0071fb" opacity="0.9" transform="translate(882.4774169921875 542.2677001953125)" style="opacity:0.9;animation-play-state:paused" ></circle>
<path id="path2" d="M 1542.1083619937629 450.8641156506687
c 0 31.57744580439276 -7.726396313840781 9.070117411900048 -16.79651372574083 9.070117411900048
S 1508.5153345422812 482.44156145506145 1508.5153345422812 450.8641156506687
s 7.726396313840781 -9.070117411900048 16.79651372574083 -9.070117411900048
S 1542.1083619937629 419.2866698462759 1542.1083619937629 450.8641156506687
z" fill="none" stroke="none" style="animation-play-state:paused" ></path>


<circle cx="0" cy="0" r="7.614932746609051" fill="#0071fb" opacity="0.9" transform="translate(1533.68359375 437.1404724121094)" style="opacity:0.9;animation-play-state:paused" ></circle>
<path id="path3" d="M 416.26224511515034 495.9268202411946
c 0 33.961617850078305 -8.309757559061712 9.75493278672462 -18.06469034578633 9.75493278672462
S 380.13286442357764 529.8884380912729 380.13286442357764 495.9268202411946
s 8.309757559061712 -9.75493278672462 18.06469034578633 -9.75493278672462
S 416.26224511515034 461.9652023911163 416.26224511515034 495.9268202411946
z" fill="none" stroke="none" style="animation-play-state:paused" ></path>


<circle cx="0" cy="0" r="5.5585423741228475" fill="#0071fb" opacity="0.9" transform="translate(414.2292175292969 478.8807373046875)" style="opacity:0.9;animation-play-state:paused" ></circle>
<path id="path4" d="M 836.7190126335917 708.2985412887184
c 0 21.30793012312606 -5.2136424769350995 6.120362907706422 -11.334005384641522 6.120362907706422
S 814.0510018643087 729.6064714118445 814.0510018643087 708.2985412887184
s 5.2136424769350995 -6.120362907706422 11.334005384641522 -6.120362907706422
S 836.7190126335917 686.9906111655923 836.7190126335917 708.2985412887184
z" fill="none" stroke="none" style="animation-play-state:paused" ></path>


<circle cx="0" cy="0" r="4.587917022888992" fill="#00b2ff" opacity="0.9" transform="translate(836.7168579101562 708.8528442382812)" style="opacity:0.9;animation-play-state:paused" ></circle>
<path id="path5" d="M 149.5507986213035 537.012844577172
c 0 31.962589011254178 -7.820633481477085 9.180743652168754 -17.00137713364584 9.180743652168754
S 115.54804435401184 568.9754335884262 115.54804435401184 537.012844577172
s 7.820633481477085 -9.180743652168754 17.00137713364584 -9.180743652168754
S 149.5507986213035 505.05025556591784 149.5507986213035 537.012844577172
z" fill="none" stroke="none" style="animation-play-state:paused" ></path>


<circle cx="0" cy="0" r="7.999646269776077" fill="#0071fb" opacity="0.9" transform="translate(133.893798828125 527.6756591796875)" style="opacity:0.9;animation-play-state:paused" ></circle>
<path id="path6" d="M 1580.7980511742944 585.56079230356
c 0 27.384605191897514 -6.700488504400455 7.8657908529918386 -14.566279357392293 7.8657908529918386
S 1551.66549245951 612.9453974954575 1551.66549245951 585.56079230356
s 6.700488504400455 -7.8657908529918386 14.566279357392293 -7.8657908529918386
S 1580.7980511742944 558.1761871116624 1580.7980511742944 585.56079230356
z" fill="none" stroke="none" style="animation-play-state:paused" ></path>


<circle cx="0" cy="0" r="7.389066116213246" fill="#00b2ff" opacity="0.9" transform="translate(1564.85107421875 593.6173706054688)" style="opacity:0.9;animation-play-state:paused" ></circle>
<path id="path7" d="M 648.8676477241139 690.7263457305947
c 0 28.825938749186133 -7.053155225864691 8.27979091731942 -15.332946143184111 8.27979091731942
S 618.2017554377456 719.5522844797808 618.2017554377456 690.7263457305947
s 7.053155225864691 -8.27979091731942 15.332946143184111 -8.27979091731942
S 648.8676477241139 661.9004069814087 648.8676477241139 690.7263457305947
z" fill="none" stroke="none" style="animation-play-state:paused" ></path>


<circle cx="0" cy="0" r="7.691647735354783" fill="#0071fb" opacity="0.9" transform="translate(618.5533447265625 699.6826782226562)" style="opacity:0.9;animation-play-state:paused" ></circle>
<path id="path8" d="M 1185.0456670248363 235.34748892444958
c 0 35.55444195630807 -8.699491116968995 10.212446093833169 -18.911937210802165 10.212446093833169
S 1147.2217926032322 270.9019308807576 1147.2217926032322 235.34748892444958
s 8.699491116968995 -10.212446093833169 18.911937210802165 -10.212446093833169
S 1185.0456670248363 199.7930469681415 1185.0456670248363 235.34748892444958
z" fill="none" stroke="none" style="animation-play-state:paused" ></path>


<circle cx="0" cy="0" r="7.927697125679355" fill="#0071fb" opacity="0.9" transform="translate(1162.2362060546875 224.03575134277344)" style="opacity:0.9;animation-play-state:paused" ></circle>
<path id="path9" d="M 884.5309328203281 718.9791408965973
c 0 36.37297268438595 -8.899769912136987 10.447555983812986 -19.347325895949975 10.447555983812986
S 845.8362810284281 755.3521135809832 845.8362810284281 718.9791408965973
s 8.899769912136987 -10.447555983812986 19.347325895949975 -10.447555983812986
S 884.5309328203281 682.6061682122114 884.5309328203281 718.9791408965973
z" fill="none" stroke="none" style="animation-play-state:paused" ></path>


<circle cx="0" cy="0" r="4.408444590907342" fill="#003b9f" opacity="0.9" transform="translate(854.0068969726562 701.8555908203125)" style="opacity:0.9;animation-play-state:paused" ></circle>
<path id="path10" d="M 566.000452058669 402.25095009915026
c 0 27.382908197958653 -6.700073282479244 7.8653034185625925 -14.565376701041837 7.8653034185625925
S 536.8696986565853 429.63385829710893 536.8696986565853 402.25095009915026
s 6.700073282479244 -7.8653034185625925 14.565376701041837 -7.8653034185625925
S 566.000452058669 374.8680419011916 566.000452058669 402.25095009915026
z" fill="none" stroke="none" style="animation-play-state:paused" ></path>


<circle cx="0" cy="0" r="5.440601679495841" fill="#0071fb" opacity="0.9" transform="translate(544.0960083007812 414.2207336425781)" style="opacity:0.9;animation-play-state:paused" ></circle>
<path id="path11" d="M 202.34692340826493 413.0389409858871
c 0 32.60358282648768 -7.977472393715071 9.364858896969867 -17.34233129068494 9.364858896969867
S 167.66226082689505 445.6425238123748 167.66226082689505 413.0389409858871
s 7.977472393715071 -9.364858896969867 17.34233129068494 -9.364858896969867
S 202.34692340826493 380.4353581593994 202.34692340826493 413.0389409858871
z" fill="none" stroke="none" style="animation-play-state:paused" ></path>


<circle cx="0" cy="0" r="4.62443540998032" fill="#003b9f" opacity="0.9" transform="translate(171.17312622070312 430.4283447265625)" style="opacity:0.9;animation-play-state:paused" ></circle>
<path id="path12" d="M 858.8738806334143 266.6726627036025
c 0 27.313935497088707 -6.683196983330215 7.845492110865906 -14.528689094196121 7.845492110865906
S 829.816502445022 293.9865982006912 829.816502445022 266.6726627036025
s 6.683196983330215 -7.845492110865906 14.528689094196121 -7.845492110865906
S 858.8738806334143 239.35872720651378 858.8738806334143 266.6726627036025
z" fill="none" stroke="none" style="animation-play-state:paused" ></path>


<circle cx="0" cy="0" r="7.630676425656508" fill="#0071fb" opacity="0.9" transform="translate(858.4714965820312 275.78125)" style="opacity:0.9;animation-play-state:paused" ></circle>
<path id="path13" d="M 649.4920171295257 143.3538803793351
c 0 28.834240358706342 -7.055186470747295 8.28217542218161 -15.337361892928904 8.28217542218161
S 618.8172933436679 172.18812073804145 618.8172933436679 143.3538803793351
s 7.055186470747295 -8.28217542218161 15.337361892928904 -8.28217542218161
S 649.4920171295257 114.51964002062876 649.4920171295257 143.3538803793351
z" fill="none" stroke="none" style="animation-play-state:paused" ></path>


<circle cx="0" cy="0" r="7.8315420884731335" fill="#00b2ff" opacity="0.9" transform="translate(637.412353515625 134.12823486328125)" style="opacity:0.9;animation-play-state:paused" ></circle>
<path id="path14" d="M 588.7106860036445 182.96363363933884
c 0 22.71305968088336 -5.557450772982099 6.52396395089203 -12.08141472387413 6.52396395089203
S 564.5478565558963 205.6766933202222 564.5478565558963 182.96363363933884
s 5.557450772982099 -6.52396395089203 12.08141472387413 -6.52396395089203
S 588.7106860036445 160.25057395845548 588.7106860036445 182.96363363933884
z" fill="none" stroke="none" style="animation-play-state:paused" ></path>


<circle cx="0" cy="0" r="4.485339378542091" fill="#00b2ff" opacity="0.9" transform="translate(573.0811157226562 175.0879669189453)" style="opacity:0.9;animation-play-state:paused" ></circle>
<path id="path15" d="M 1481.892480026182 706.9943655290524
c 0 29.955988380567717 -7.329656731415504 8.604379641226897 -15.934036372642401 8.604379641226897
S 1450.0244072808973 736.9503539096202 1450.0244072808973 706.9943655290524
s 7.329656731415504 -8.604379641226897 15.934036372642401 -8.604379641226897
S 1481.892480026182 677.0383771484846 1481.892480026182 706.9943655290524
z" fill="none" stroke="none" style="animation-play-state:paused" ></path>


<circle cx="0" cy="0" r="5.552814806821767" fill="#003b9f" opacity="0.9" transform="translate(1471.176513671875 696.2217407226562)" style="opacity:0.9;animation-play-state:paused" ></circle>
<path id="path16" d="M 715.6234710398262 33.33275314050132
c 0 27.38809100559217 -6.701341416261913 7.866792097350943 -14.568133513612855 7.866792097350943
S 686.4872040126004 60.720844146093484 686.4872040126004 33.33275314050132
s 6.701341416261913 -7.866792097350943 14.568133513612855 -7.866792097350943
S 715.6234710398262 5.944662134909148 715.6234710398262 33.33275314050132
z" fill="none" stroke="none" style="animation-play-state:paused" ></path>


<circle cx="0" cy="0" r="4.2497066169853435" fill="#0059ff" opacity="0.9" transform="translate(714.7489624023438 45.15357971191406)" style="opacity:0.9;animation-play-state:paused" ></circle>
<path id="path17" d="M 1229.4192599810062 201.28888009529967
c 0 31.195401883907216 -7.632917482232616 8.960381392186116 -16.593298874418732 8.960381392186116
S 1196.2326622321689 232.48428197920688 1196.2326622321689 201.28888009529967
s 7.632917482232616 -8.960381392186116 16.593298874418732 -8.960381392186116
S 1229.4192599810062 170.09347821139247 1229.4192599810062 201.28888009529967
z" fill="none" stroke="none" style="animation-play-state:paused" ></path>


<circle cx="0" cy="0" r="7.584612307424684" fill="#00b2ff" opacity="0.9" transform="translate(1196.7196044921875 190.6582794189453)" style="opacity:0.9;animation-play-state:paused" ></circle>
<path id="path18" d="M 777.297483073831 143.21020102966452
c 0 27.519874506375455 -6.733586315389738 7.904644805022737 -14.638231120412474 7.904644805022737
S 748.0210208330061 170.73007553603998 748.0210208330061 143.21020102966452
s 6.733586315389738 -7.904644805022737 14.638231120412474 -7.904644805022737
S 777.297483073831 115.69032652328906 777.297483073831 143.21020102966452
z" fill="none" stroke="none" style="animation-play-state:paused" ></path>


<circle cx="0" cy="0" r="4.970966990371167" fill="#003b9f" opacity="0.9" transform="translate(777.2529907226562 146.7986297607422)" style="opacity:0.9;animation-play-state:paused" ></circle>
<path id="path19" d="M 1409.4139748095827 580.829880915029
c 0 26.627620472877478 -6.515268839108319 7.6483590719967225 -14.163627911105042 7.6483590719967225
S 1381.0867189873725 607.4575013879064 1381.0867189873725 580.829880915029
s 6.515268839108319 -7.6483590719967225 14.163627911105042 -7.6483590719967225
S 1409.4139748095827 554.2022604421516 1409.4139748095827 580.829880915029
z" fill="none" stroke="none" style="animation-play-state:paused" ></path>


<circle cx="0" cy="0" r="5.329271358347375" fill="#003b9f" opacity="0.9" transform="translate(1381.302978515625 587.8736572265625)" style="opacity:0.9;animation-play-state:paused" ></circle>
<path id="path20" d="M 1443.955287386095 42.923674337014525
c 0 31.09083155225172 -7.607331124487122 8.930345233093579 -16.5376763575807 8.930345233093579
S 1410.8799346709336 74.01450588926625 1410.8799346709336 42.923674337014525
s 7.607331124487122 -8.930345233093579 16.5376763575807 -8.930345233093579
S 1443.955287386095 11.832842784762803 1443.955287386095 42.923674337014525
z" fill="none" stroke="none" style="animation-play-state:paused" ></path>


<circle cx="0" cy="0" r="7.490657126099413" fill="#0059ff" opacity="0.9" transform="translate(1411.7296142578125 30.11861228942871)" style="opacity:0.9;animation-play-state:paused" ></circle>
<path id="path21" d="M 1325.0609222295673 170.45543557132785
c 0 36.08741966050543 -8.829900555230052 10.365535434400497 -19.19543598963055 10.365535434400497
S 1286.670050250306 206.5428552318333 1286.670050250306 170.45543557132785
s 8.829900555230052 -10.365535434400497 19.19543598963055 -10.365535434400497
S 1325.0609222295673 134.3680159108224 1325.0609222295673 170.45543557132785
z" fill="none" stroke="none" style="animation-play-state:paused" ></path>


<circle cx="0" cy="0" r="6.251522726859785" fill="#00b2ff" opacity="0.9" transform="translate(1311.3017578125 158.07913208007812)" style="opacity:0.9;animation-play-state:paused" ></circle>
<path id="path22" d="M 19.650153667739787 217.95452841967995
c 0 27.948413349825994 -6.838441564319125 8.027735749418104 -14.86617731373723 8.027735749418104
S -10.082200959734676 245.90294176950593 -10.082200959734676 217.95452841967995
s 6.838441564319125 -8.027735749418104 14.86617731373723 -8.027735749418104
S 19.650153667739787 190.00611506985396 19.650153667739787 217.95452841967995
z" fill="none" stroke="none" style="animation-play-state:paused" ></path>


<circle cx="0" cy="0" r="4.66175707056459" fill="#00b2ff" opacity="0.9" transform="translate(6.113271713256836 209.75306701660156)" style="opacity:0.9;animation-play-state:paused" ></circle>
<path id="path23" d="M 1230.643889333048 206.43045503912197
c 0 31.215805963518903 -7.637909969797177 8.966242138457558 -16.604152108254734 8.966242138457558
S 1197.4355851165385 237.64626100264087 1197.4355851165385 206.43045503912197
s 7.637909969797177 -8.966242138457558 16.604152108254734 -8.966242138457558
S 1230.643889333048 175.21464907560306 1230.643889333048 206.43045503912197
z" fill="none" stroke="none" style="animation-play-state:paused" ></path>


<circle cx="0" cy="0" r="7.6069532647613265" fill="#0071fb" opacity="0.9" transform="translate(1197.4368896484375 207.076171875)" style="opacity:0.9;animation-play-state:paused" ></circle>
<path id="path24" d="M 555.5684355395716 293.31954206339816
c 0 32.17450818748481 -7.872486045873941 9.24161405385202 -17.114100099725963 9.24161405385202
S 521.3402353401196 325.494050250883 521.3402353401196 293.31954206339816
s 7.872486045873941 -9.24161405385202 17.114100099725963 -9.24161405385202
S 555.5684355395716 261.1450338759133 555.5684355395716 293.31954206339816
z" fill="none" stroke="none" style="animation-play-state:paused" ></path>


<circle cx="0" cy="0" r="4.919024031967968" fill="#0071fb" opacity="0.9" transform="translate(527.8812255859375 277.6180725097656)" style="opacity:0.9;animation-play-state:paused" ></circle>
<path id="path25" d="M 1328.5749670141831 697.0791683117264
c 0 30.021841146176932 -7.345769642149674 8.62329479730614 -15.969064439455813 8.62329479730614
S 1296.6368381352713 727.1010094579034 1296.6368381352713 697.0791683117264
s 7.345769642149674 -8.62329479730614 15.969064439455813 -8.62329479730614
S 1328.5749670141831 667.0573271655495 1328.5749670141831 697.0791683117264
z" fill="none" stroke="none" style="animation-play-state:paused" ></path>


<circle cx="0" cy="0" r="6.944552733580201" fill="#003b9f" opacity="0.9" transform="translate(1296.64453125 695.4826049804688)" style="opacity:0.9;animation-play-state:paused" ></circle>
<path id="path26" d="M 872.8322616302095 288.71102404227497
c 0 35.946968589114555 -8.795534867549305 10.325193105383969 -19.120727972933274 10.325193105383969
S 834.5908056843429 324.6579926313895 834.5908056843429 288.71102404227497
s 8.795534867549305 -10.325193105383969 19.120727972933274 -10.325193105383969
S 872.8322616302095 252.7640554531604 872.8322616302095 288.71102404227497
z" fill="none" stroke="none" style="animation-play-state:paused" ></path>


<circle cx="0" cy="0" r="7.775156187715289" fill="#003b9f" opacity="0.9" transform="translate(861.8740234375 274.2661437988281)" style="opacity:0.9;animation-play-state:paused" ></circle>
<path id="path27" d="M 1550.2848081751072 638.2659887606992
c 0 31.025553243156562 -7.591358772261711 8.91159508048114 -16.502953852742852 8.91159508048114
S 1517.2789004696215 669.2915420038557 1517.2789004696215 638.2659887606992
s 7.591358772261711 -8.91159508048114 16.502953852742852 -8.91159508048114
S 1550.2848081751072 607.2404355175427 1550.2848081751072 638.2659887606992
z" fill="none" stroke="none" style="animation-play-state:paused" ></path>


<circle cx="0" cy="0" r="5.236225920510299" fill="#0059ff" opacity="0.9" transform="translate(1549.5982666015625 626.3246459960938)" style="opacity:0.9;animation-play-state:paused" ></circle>
<path id="path28" d="M 72.27367400197008 157.51902972466402
c 0 23.342596301520025 -5.711486329095325 6.704788299372773 -12.416274628468098 6.704788299372773
S 47.44112474503389 180.86162602618404 47.44112474503389 157.51902972466402
s 5.711486329095325 -6.704788299372773 12.416274628468098 -6.704788299372773
S 72.27367400197008 134.176433423144 72.27367400197008 157.51902972466402
z" fill="none" stroke="none" style="animation-play-state:paused" ></path>


<circle cx="0" cy="0" r="6.234482031020868" fill="#003b9f" opacity="0.9" transform="translate(62.084800720214844 164.77919006347656)" style="opacity:0.9;animation-play-state:paused" ></circle>
<path id="path29" d="M 1558.0990607946337 537.8876751331486
c 0 35.6298086562823 -8.717931905260562 10.234093975740661 -18.952025881001223 10.234093975740661
S 1520.1950090326313 573.5174837894309 1520.1950090326313 537.8876751331486
s 8.717931905260562 -10.234093975740661 18.952025881001223 -10.234093975740661
S 1558.0990607946337 502.2578664768663 1558.0990607946337 537.8876751331486
z" fill="none" stroke="none" style="animation-play-state:paused" ></path>


<circle cx="0" cy="0" r="5.139049715655956" fill="#00b2ff" opacity="0.9" transform="translate(1522.829833984375 519.4033203125)" style="opacity:0.9;animation-play-state:paused" ></circle></g></svg>