<?xml version="1.0" encoding="utf-8"?>
<svg xml:space="preserve" viewBox="0 0 100 100" y="0" x="0" xmlns="http://www.w3.org/2000/svg" id="圖層_1" version="1.1" style="height: 100%; width: 100%; background: none; shape-rendering: auto;" width="200px" height="200px"><g class="ldl-scale" style="transform-origin: 50% 50%; transform: rotate(0deg) scale(0.8, 0.8);"><g class="ldl-ani"><g class="ldl-layer"><g class="ldl-ani" style="transform-origin: 50px 50px; transform: matrix(1, 0, 0, 1, 0, 0); animation: 1.11111s linear -0.634921s infinite normal forwards running tremble-d466f75f-42f4-462a-95b3-e919638b01ee;"><path fill="#f47e60" d="M37.328 76.238L24.11 63.019c-.99-.99-.57-2.677.768-3.088l6.991-2.145 10.693 10.693-2.145 6.991a1.858 1.858 0 0 1-3.089.768z" style="fill: rgb(0, 89, 255);"></path></g></g><g class="ldl-layer"><g class="ldl-ani" style="transform-origin: 50px 50px; transform: matrix(1, 0, 0, 1, 0, 0); animation: 1.11111s linear -0.714286s infinite normal forwards running tremble-d466f75f-42f4-462a-95b3-e919638b01ee;"><path fill="#e15b64" d="M52.584 92.847c0 .001 0 0 0 0 7.624-6.472 4.221-13.342-.219-19.324a6.576 6.576 0 0 1-.111-7.694l6.924-9.889c2.434-3.476 7.744-2.923 9.408.981 5.571 13.074 4.055 30.146-16.002 35.926z" style="fill: rgb(0, 178, 255);"></path></g></g><g class="ldl-layer"><g class="ldl-ani" style="transform-origin: 50px 50px; transform: matrix(1, 0, 0, 1, 0, 0); animation: 1.11111s linear -0.793651s infinite normal forwards running tremble-d466f75f-42f4-462a-95b3-e919638b01ee;"><path fill="#e15b64" d="M7.501 47.763c-.001.001-.001.001 0 0 6.472-7.624 13.342-4.221 19.324.219a6.576 6.576 0 0 0 7.694.111l9.889-6.924c3.476-2.434 2.923-7.744-.981-9.408-13.074-5.571-30.146-4.054-35.926 16.002z" style="fill: rgb(0, 178, 255);"></path></g></g><g class="ldl-layer"><g class="ldl-ani" style="transform-origin: 50px 50px; transform: matrix(1, 0, 0, 1, 0, 0); animation: 1.11111s linear -0.873016s infinite normal forwards running tremble-d466f75f-42f4-462a-95b3-e919638b01ee;"><path fill="#e0e0e0" d="M76.207 56.895C65.609 67.492 52.078 72.009 42.368 69.106L31.243 57.984c-2.906-9.71 1.611-23.244 12.21-33.843C62.034 5.56 86.491 5.242 90.4 9.151s3.975 29.576-14.193 47.744z" style="fill: rgb(224, 224, 224);"></path></g></g><g class="ldl-layer"><g class="ldl-ani" style="transform-origin: 50px 50px; transform: matrix(1, 0, 0, 1, 0, 0); animation: 1.11111s linear -0.952381s infinite normal forwards running tremble-d466f75f-42f4-462a-95b3-e919638b01ee;"><circle r="8.431" fill="#77a4bd" cy="30.841" cx="69.507" transform="rotate(-45.001 69.507 30.842)" style="fill: rgb(119, 164, 189);"></circle></g></g><g class="ldl-layer"><g class="ldl-ani" style="transform-origin: 50px 50px; transform: matrix(1, 0, 0, 1, 0, 0); animation: 1.11111s linear -1.03175s infinite normal forwards running tremble-d466f75f-42f4-462a-95b3-e919638b01ee;"><path fill="#f47e60" d="M90.4 9.151c-1.972-1.972-9.18-2.864-18.223-.88l19.405 19.405c1.766-9.177.772-16.571-1.182-18.525z" style="fill: rgb(0, 89, 255);"></path></g></g><g class="ldl-layer"><g class="ldl-ani" style="transform-origin: 50px 50px; transform: matrix(1, 0, 0, 1, 0, 0); animation: 1.11111s linear -1.11111s infinite normal forwards running tremble-d466f75f-42f4-462a-95b3-e919638b01ee;"><path d="M26.51 87.355l7.413-14.523-3.204-3.203-.111-.112-3.203-3.203-14.524 7.413 6.402 1.179-6.402 12.339-.352.351.232-.12-.12.231.351-.351 12.338-6.403z" fill="#c33737" style="fill: rgb(254, 205, 5);"></path></g></g><metadata xmlns:d="https://loading.io/stock/"><d:name>rocket</d:name><d:tags>space shuttle,missile,space,travel,fire,take off,rocket,business</d:tags><d:license>pro</d:license><d:slug>pn885j</d:slug></metadata></g></g><style id="tremble-d466f75f-42f4-462a-95b3-e919638b01ee" data-anikit="">@keyframes tremble-d466f75f-42f4-462a-95b3-e919638b01ee {
  0% { transform: translate(0px,0px) rotate(0deg) scale(1) }
  3.33333% { transform: translate(-0.18923px,1.45485px) rotate(0deg) scale(1) }
  6.66667% { transform: translate(-0.84296px,-1.32524px) rotate(0deg) scale(1) }
  10% { transform: translate(0.67971px,1.00422px) rotate(0deg) scale(1) }
  13.33333% { transform: translate(-0.5056px,0.83616px) rotate(0deg) scale(1) }
  16.66667% { transform: translate(1.31368px,-0.51401px) rotate(0deg) scale(1) }
  20% { transform: translate(-1.21184px,1.49193px) rotate(0deg) scale(1) }
  23.33333% { transform: translate(1.09065px,-0.21259px) rotate(0deg) scale(1) }
  26.66667% { transform: translate(-1.49916px,0.56159px) rotate(0deg) scale(1) }
  30% { transform: translate(1.48086px,1.21228px) rotate(0deg) scale(1) }
  33.33333% { transform: translate(-1.43889px,-1.152px) rotate(0deg) scale(1) }
  36.66667% { transform: translate(1.35914px,1.34835px) rotate(0deg) scale(1) }
  40% { transform: translate(-1.42834px,0.3091px) rotate(0deg) scale(1) }
  43.33333% { transform: translate(1.47472px,-1.49889px) rotate(0deg) scale(1) }
  46.66667% { transform: translate(-0.92402px,1.4416px) rotate(0deg) scale(1) }
  50% { transform: translate(1.0657px,-0.75306px) rotate(0deg) scale(1) }
  53.33333% { transform: translate(-1.19035px,-1.07484px) rotate(0deg) scale(1) }
  56.66667% { transform: translate(0.28828px,0.79337px) rotate(0deg) scale(1) }
  60% { transform: translate(-0.47167px,-1.42789px) rotate(0deg) scale(1) }
  63.33333% { transform: translate(0.64753px,-0.09795px) rotate(0deg) scale(1) }
  66.66667% { transform: translate(0.41006px,-0.26292px) rotate(0deg) scale(1) }
  70% { transform: translate(-0.22477px,-1.3683px) rotate(0deg) scale(1) }
  73.33333% { transform: translate(0.03588px,0.92931px) rotate(0deg) scale(1) }
  76.66667% { transform: translate(-1.01937px,-1.18398px) rotate(0deg) scale(1) }
  80% { transform: translate(0.8724px,-0.60494px) rotate(0deg) scale(1) }
  83.33333% { transform: translate(-0.71151px,1.4786px) rotate(0deg) scale(1) }
  86.66667% { transform: translate(1.40734px,-1.49607px) rotate(0deg) scale(1) }
  90% { transform: translate(-1.33062px,0.46957px) rotate(0deg) scale(1) }
  93.33333% { transform: translate(1.23264px,1.26738px) rotate(0deg) scale(1) }
  96.66667% { transform: translate(-1.48975px,-1.03867px) rotate(0deg) scale(1) }
  100% { transform: translate(0,0) rotate(0) scale(1) }
}</style><!-- [ldio] generated by https://loading.io/ --></svg>