<svg id="Layer_1" data-name="Layer 1" xmlns="http://www.w3.org/2000/svg" xmlns:xlink="http://www.w3.org/1999/xlink" viewBox="0 0 423.96 101.36"><defs><style>.cls-1{fill:url(#linear-gradient);}.cls-2{fill:#fff;}.cls-3{fill:#001d3f;}.cls-4{fill:#0071fb;}</style><linearGradient id="linear-gradient" x1="14.84" y1="86.51" x2="86.51" y2="14.84" gradientUnits="userSpaceOnUse"><stop offset="0" stop-color="#0059ff"/><stop offset="1" stop-color="#00b2ff"/></linearGradient></defs><circle class="cls-1" cx="50.68" cy="50.68" r="50.68"/><polygon class="cls-2" points="66.47 63.57 59.61 75.81 54.19 75.81 45.98 62.07 37.91 75.81 31.25 75.81 19.35 39.99 26.08 35.95 35.51 64.76 43.48 51.97 49.08 51.97 56.69 65.19 62.05 55.14 66.47 63.57"/><polygon class="cls-2" points="70.84 55.14 79.65 72.25 72.74 75.81 66.47 63.57 62.05 55.14 52 35.98 58.69 31.95 66.44 46.76 77.25 25.55 83.56 30.29 70.84 55.14"/><path class="cls-3" d="M527.25,540.07V508.88h6.9v31.19Z" transform="translate(-342.36 -469.23)"/><path class="cls-3" d="M570.19,536.28a16.51,16.51,0,0,1-12,4.59c-11.9,0-16.62-7.66-16.66-16.17,0-8.06,5.21-16.53,16.66-16.53A16.09,16.09,0,0,1,569.66,513l-4.37,4.32a10.21,10.21,0,0,0-7.08-2.58c-7.09,0-9.85,5.48-9.8,10s2.49,9.72,9.8,9.72a11.82,11.82,0,0,0,7.66-3Z" transform="translate(-342.36 -469.23)"/><path class="cls-3" d="M583.33,515.08h-9.49v-6.2h25.88v6.2h-9.49v25h-6.9Z" transform="translate(-342.36 -469.23)"/><path class="cls-3" d="M633.84,540.07h-7.71l-8-10.25h-5v10.25h-7V508.88H621c7.53,0,11.54,5,11.54,10.52,0,4.05-1.25,7.66-7.21,9.8l8.55,10.33Zm-20.72-25.22v9.09h7.93a4.33,4.33,0,0,0,4.59-4.36,4.58,4.58,0,0,0-4.68-4.73Z" transform="translate(-342.36 -469.23)"/><path class="cls-3" d="M655.53,540.83c-10,0-16.84-6.2-16.84-16.35s6.86-16.35,16.84-16.35,16.84,6.19,16.84,16.35S665.51,540.83,655.53,540.83Zm0-26.47a9.79,9.79,0,0,0-10,10.12,9.65,9.65,0,0,0,10,10.06c6.06,0,10-4.27,10-10.06S661.59,514.36,655.53,514.36Z" transform="translate(-342.36 -469.23)"/><path class="cls-3" d="M701.45,529.15l-.45-9.8V508.88h7v31.19h-6l-15.51-20,.27,10.25v9.71h-7V508.88h6Z" transform="translate(-342.36 -469.23)"/><path class="cls-3" d="M717.17,540.07V508.88h6.9v31.19Z" transform="translate(-342.36 -469.23)"/><polygon class="cls-4" points="180.16 29.55 165.39 71 159.35 71 153.85 56.4 149.49 43.09 145.13 56.46 139.69 71 133.72 71 133.68 70.89 118.7 29.55 126.38 29.55 136.71 60.81 147.21 29.55 151.66 29.55 151.7 29.66 162.39 60.81 172.48 29.55 180.16 29.55"/><polygon class="cls-4" points="423.96 70.61 423.96 71 416.26 71 405.2 54.88 394.09 71 386.39 71 386.39 70.61 386.42 70.56 400.78 50.02 386.98 30.12 386.98 29.61 394.44 29.61 405.2 45.38 415.91 29.61 423.38 29.61 423.38 30.12 409.51 50.02 423.96 70.61"/></svg>