<svg id="Layer_1" data-name="Layer 1" xmlns="http://www.w3.org/2000/svg" xmlns:xlink="http://www.w3.org/1999/xlink" viewBox="0 0 701.25 167.65"><defs><style>.cls-1{fill:url(#linear-gradient);}.cls-2{fill:#fff;}.cls-3{fill:#00b2ff;}</style><linearGradient id="linear-gradient" x1="24.55" y1="143.1" x2="143.1" y2="24.55" gradientUnits="userSpaceOnUse"><stop offset="0" stop-color="#0059ff"/><stop offset="1" stop-color="#00b2ff"/></linearGradient></defs><circle class="cls-1" cx="83.82" cy="83.82" r="83.82"/><path class="cls-2" d="M406,197.67,422,228.85a1,1,0,0,1-.83,1.49l-11.64,1a1,1,0,0,1-1-.56l-9.18-17.91a1,1,0,0,0-1.81,0l-10.12,18a1,1,0,0,1-.89.53h-7.79a1,1,0,0,1-.88-.51l-12.38-20.73a1,1,0,0,0-1.77,0l-12.18,20.72a1,1,0,0,1-.89.51H341a1,1,0,0,1-1-.71L318.8,166.8a1,1,0,0,1,1-1.35H331a1,1,0,0,1,1,.7L346.61,211a1,1,0,0,0,1.85.23l11.73-18.8a1,1,0,0,1,.87-.48h8.09a1,1,0,0,1,.89.51l11.36,19.74a1,1,0,0,0,1.8,0l7.73-14.49a1.07,1.07,0,0,0,0-1L375.36,167a1,1,0,0,1,.9-1.5l12.22-.05a1,1,0,0,1,.92.55l8.14,15.57a1,1,0,0,0,1.82,0l16.7-32.74a1,1,0,0,1,.92-.56h12.11a1,1,0,0,1,.92,1.49l-24,47A1,1,0,0,0,406,197.67Z" transform="translate(-289.38 -105.99)"/><path class="cls-3" d="M595.18,223.29V171.72H606.6v51.57Z" transform="translate(-289.38 -105.99)"/><path class="cls-3" d="M666.21,217c-5.31,5.23-12.16,7.59-19.82,7.59-19.68,0-27.49-12.67-27.56-26.75-.08-13.33,8.62-27.33,27.56-27.33a26.54,26.54,0,0,1,18.93,8l-7.22,7.15c-3.09-3-7.59-4.27-11.71-4.27-11.72,0-16.29,9.06-16.21,16.58S634.3,214,646.39,214c4.12,0,9.58-1.84,12.67-4.94Z" transform="translate(-289.38 -105.99)"/><path class="cls-3" d="M687.93,182H672.24V171.72h42.81V182h-15.7v41.33H687.93Z" transform="translate(-289.38 -105.99)"/><path class="cls-3" d="M771.48,223.29H758.73l-13.18-16.94h-8.33v16.94h-11.5V171.72h24.47c12.45,0,19.08,8.32,19.08,17.38-.07,6.71-2.06,12.68-11.94,16.22l14.15,17.09Zm-34.26-41.7v15h13.11a7.16,7.16,0,0,0,7.59-7.22c-.07-3.54-2.35-7.81-7.73-7.81Z" transform="translate(-289.38 -105.99)"/><path class="cls-3" d="M807.36,224.55c-16.51,0-27.86-10.24-27.86-27s11.35-27,27.86-27,27.85,10.25,27.85,27S823.86,224.55,807.36,224.55Zm0-43.77c-9.8,0-16.58,7.37-16.58,16.73,0,9.65,6.78,16.65,16.58,16.65,10,0,16.57-7.08,16.57-16.65S817.38,180.78,807.36,180.78Z" transform="translate(-289.38 -105.99)"/><path class="cls-3" d="M883.31,205.24,882.57,189V171.72h11.57v51.57h-9.87l-25.64-33,.44,16.95v16.06H847.43V171.72h9.87Z" transform="translate(-289.38 -105.99)"/><path class="cls-3" d="M909.31,223.29V171.72h11.42v51.57Z" transform="translate(-289.38 -105.99)"/><polygon class="cls-3" points="298 49.02 273.55 117.58 263.56 117.58 254.47 93.43 247.26 71.42 240.04 93.52 231.05 117.58 221.17 117.58 221.1 117.39 196.33 49.02 209.04 49.02 226.12 100.73 243.48 49.02 250.85 49.02 250.92 49.2 268.6 100.73 285.29 49.02 298 49.02"/><polygon class="cls-3" points="701.25 116.93 701.25 117.58 688.5 117.58 670.22 90.91 651.83 117.58 639.1 117.58 639.1 116.93 639.14 116.85 662.9 82.86 640.07 49.96 640.07 49.12 652.42 49.12 670.22 75.2 687.93 49.12 700.28 49.12 700.28 49.96 677.34 82.86 701.25 116.93"/></svg>