<svg id="Layer_1" data-name="Layer 1" xmlns="http://www.w3.org/2000/svg" xmlns:xlink="http://www.w3.org/1999/xlink" viewBox="0 0 580.94 138.89"><defs><style>.cls-1{fill:url(#linear-gradient);}.cls-2{fill:#fff;}</style><linearGradient id="linear-gradient" x1="20.34" y1="118.55" x2="118.55" y2="20.34" gradientUnits="userSpaceOnUse"><stop offset="0" stop-color="#0059ff"/><stop offset="1" stop-color="#00b2ff"/></linearGradient></defs><circle class="cls-1" cx="69.44" cy="69.44" r="69.44"/><path class="cls-2" d="M110.93,427.32l13.3,25.83a.85.85,0,0,1-.68,1.24l-9.65.8a.84.84,0,0,1-.83-.46l-7.6-14.83a.85.85,0,0,0-1.5,0l-8.38,14.94a.87.87,0,0,1-.75.43H88.39a.87.87,0,0,1-.73-.41L77.41,437.65a.86.86,0,0,0-1.47,0L65.85,454.82a.86.86,0,0,1-.74.42h-8a.86.86,0,0,1-.81-.58L38.71,401.74a.85.85,0,0,1,.81-1.12h9.26a.86.86,0,0,1,.81.59l12.16,37.16a.86.86,0,0,0,1.54.19L73,423a.87.87,0,0,1,.72-.4h6.7a.88.88,0,0,1,.74.43l9.41,16.35a.85.85,0,0,0,1.49,0l6.41-12a.87.87,0,0,0,0-.8L85.56,401.91a.85.85,0,0,1,.75-1.24l10.13-.05a.85.85,0,0,1,.75.46l6.75,12.9a.85.85,0,0,0,1.51,0l13.84-27.12a.84.84,0,0,1,.76-.47h10a.85.85,0,0,1,.76,1.24l-19.91,38.92A.83.83,0,0,0,110.93,427.32Z" transform="translate(-14.33 -351.37)"/><path class="cls-2" d="M267.68,448.55V405.82h9.46v42.73Z" transform="translate(-14.33 -351.37)"/><path class="cls-2" d="M326.52,443.36c-4.4,4.33-10.08,6.29-16.42,6.29-16.3,0-22.77-10.5-22.83-22.16-.07-11.05,7.14-22.65,22.83-22.65a22,22,0,0,1,15.68,6.59l-6,5.92a14,14,0,0,0-9.7-3.54c-9.71,0-13.49,7.51-13.43,13.74s3.41,13.31,13.43,13.31a16.24,16.24,0,0,0,10.5-4.09Z" transform="translate(-14.33 -351.37)"/><path class="cls-2" d="M344.52,414.3h-13v-8.48H367v8.48H354v34.25h-9.46Z" transform="translate(-14.33 -351.37)"/><path class="cls-2" d="M413.73,448.55H403.17l-10.93-14h-6.9v14h-9.52V405.82h20.27c10.31,0,15.81,6.89,15.81,14.4-.06,5.56-1.71,10.5-9.89,13.43l11.72,14.16ZM385.34,414v12.45h10.87a5.93,5.93,0,0,0,6.29-6c-.06-2.93-2-6.47-6.41-6.47Z" transform="translate(-14.33 -351.37)"/><path class="cls-2" d="M443.45,449.58c-13.67,0-23.07-8.48-23.07-22.4s9.4-22.4,23.07-22.4,23.07,8.48,23.07,22.4S457.12,449.58,443.45,449.58Zm0-36.25c-8.12,0-13.74,6.1-13.74,13.85,0,8,5.62,13.8,13.74,13.8,8.3,0,13.73-5.86,13.73-13.8S451.75,413.33,443.45,413.33Z" transform="translate(-14.33 -351.37)"/><path class="cls-2" d="M506.37,433.59l-.61-13.43V405.82h9.59v42.73h-8.18L485.92,421.2l.37,14v13.31h-9.65V405.82h8.18Z" transform="translate(-14.33 -351.37)"/><path class="cls-2" d="M527.91,448.55V405.82h9.46v42.73Z" transform="translate(-14.33 -351.37)"/><polygon class="cls-2" points="246.87 40.61 226.62 97.41 218.34 97.41 210.81 77.4 204.84 59.16 198.86 77.47 191.41 97.41 183.22 97.41 183.17 97.25 162.64 40.61 173.17 40.61 187.32 83.45 201.71 40.61 207.81 40.61 207.87 40.76 222.51 83.45 236.34 40.61 246.87 40.61"/><polygon class="cls-2" points="580.94 96.87 580.94 97.41 570.38 97.41 555.23 75.31 540 97.41 529.46 97.41 529.46 96.87 529.49 96.8 549.17 68.65 530.26 41.39 530.26 40.69 540.49 40.69 555.23 62.3 569.91 40.69 580.14 40.69 580.14 41.39 561.13 68.65 580.94 96.87"/></svg>